<?xml version="1.0" encoding="UTF-8" standalone="no"?>
<!-- Created with Inkscape (http://www.inkscape.org/) -->

<svg
   xmlns:dc="http://purl.org/dc/elements/1.1/"
   xmlns:cc="http://creativecommons.org/ns#"
   xmlns:rdf="http://www.w3.org/1999/02/22-rdf-syntax-ns#"
   xmlns:svg="http://www.w3.org/2000/svg"
   xmlns="http://www.w3.org/2000/svg"
   xmlns:sodipodi="http://sodipodi.sourceforge.net/DTD/sodipodi-0.dtd"
   xmlns:inkscape="http://www.inkscape.org/namespaces/inkscape"
   version="1.2"
   width="284.33594"
   height="122.34777"
   id="svg4052"
   inkscape:version="0.48.4 r9939"
   sodipodi:docname="logo.svg">
  <sodipodi:namedview
     pagecolor="#ffffff"
     bordercolor="#666666"
     borderopacity="1"
     objecttolerance="10"
     gridtolerance="10"
     guidetolerance="10"
     inkscape:pageopacity="0"
     inkscape:pageshadow="2"
     inkscape:window-width="958"
     inkscape:window-height="1027"
     id="namedview24"
     showgrid="false"
     inkscape:zoom="1.4174962"
     inkscape:cx="139.06785"
     inkscape:cy="79.478343"
     inkscape:window-x="960"
     inkscape:window-y="0"
     inkscape:window-maximized="0"
     inkscape:current-layer="svg4052"
     fit-margin-top="0"
     fit-margin-left="0"
     fit-margin-right="0"
     fit-margin-bottom="0" />
  <defs
     id="defs4054" />
  <metadata
     id="metadata4057">
    <rdf:RDF>
      <cc:Work
         rdf:about="">
        <dc:format>image/svg+xml</dc:format>
        <dc:type
           rdf:resource="http://purl.org/dc/dcmitype/StillImage" />
        <dc:title />
      </cc:Work>
    </rdf:RDF>
  </metadata>
  <g
     id="g3160"
     transform="translate(-5.9170611,-13.332088)">
    <path
       d="m 58.085027,81.976826 a 15.357143,15.357143 0 1 1 -30.714285,0 15.357143,15.357143 0 1 1 30.714285,0 z"
       id="path3977"
       style="fill:#008000;stroke:none"
       inkscape:connector-curvature="0" />
    <path
       inkscape:connector-curvature="0"
       style="font-size:40px;font-style:normal;font-variant:normal;font-weight:bold;font-stretch:normal;line-height:125%;letter-spacing:0px;word-spacing:0px;fill:#000000;fill-opacity:1;stroke:none;font-family:Comfortaa;-inkscape-font-specification:Comfortaa Bold"
       id="path3019"
       d="m 10.057686,70.259418 0,12.421875 3.945313,0 c 0.846344,1.5e-5 1.640614,-0.162746 2.382812,-0.488281 0.755196,-0.325506 1.412748,-0.768213 1.972657,-1.328125 0.572902,-0.559879 1.02212,-1.21743 1.347656,-1.972656 0.338526,-0.75519 0.507797,-1.56248 0.507812,-2.421875 -1.5e-5,-0.872375 -0.169286,-1.686176 -0.507812,-2.441407 -0.325536,-0.755184 -0.774754,-1.412735 -1.347656,-1.972656 -0.559909,-0.55987 -1.217461,-0.996067 -1.972657,-1.308594 -0.755219,-0.325494 -1.549489,-0.488254 -2.382812,-0.488281 l -3.945313,0 m -4.1406249,25.039068 0,-27.10938 c -1e-6,-0.286429 0.05208,-0.553356 0.15625,-0.800782 0.104165,-0.260386 0.247394,-0.48174 0.429688,-0.664062 0.19531,-0.195282 0.416664,-0.345021 0.664062,-0.449219 0.247393,-0.104135 0.520831,-0.156219 0.820313,-0.15625 l 6.0156249,0 c 0.93749,3.1e-5 1.842437,0.123729 2.714844,0.371094 0.885403,0.247426 1.712225,0.598988 2.480468,1.054687 0.768214,0.455759 1.471338,1.002633 2.109375,1.640625 0.638004,0.625028 1.178368,1.321642 1.621094,2.089844 0.455711,0.768255 0.807273,1.595077 1.054688,2.480469 0.260397,0.872418 0.390605,1.777365 0.390625,2.714844 -2e-5,2.838559 -1.022155,5.279963 -3.066407,7.324218 -2.018243,2.018241 -4.453137,3.027355 -7.304687,3.027344 l -3.945313,0 0,8.476568 c -5e-6,0.57291 -0.2018279,1.06119 -0.6054679,1.46484 -0.403651,0.40364 -0.891931,0.60547 -1.464844,0.60547 -0.57292,0 -1.0612,-0.20183 -1.464844,-0.60547 -0.403647,-0.40365 -0.60547,-0.89193 -0.605469,-1.46484" />
    <path
       inkscape:connector-curvature="0"
       style="font-size:40px;font-style:normal;font-variant:normal;font-weight:bold;font-stretch:normal;line-height:125%;letter-spacing:0px;word-spacing:0px;fill:#000000;fill-opacity:1;stroke:none;font-family:Comfortaa;-inkscape-font-specification:Comfortaa Bold"
       id="path3021"
       d="m 42.752999,70.259418 c -1.614599,2.7e-5 -3.092462,0.279975 -4.433594,0.839844 -1.328136,0.559921 -2.558604,1.406275 -3.691406,2.539062 -1.13282,1.132835 -1.979174,2.363303 -2.539063,3.691407 -0.54688,1.328143 -0.820318,2.799496 -0.820312,4.414062 -6e-6,3.177096 1.119785,5.885426 3.359375,8.125 2.239572,2.239589 4.947903,3.359379 8.125,3.359375 3.177063,4e-6 5.885394,-1.119786 8.125,-3.359375 2.239556,-2.239574 3.359346,-4.947904 3.359375,-8.125 -2.9e-5,-3.164044 -1.119819,-5.865864 -3.359375,-8.105469 -2.252627,-2.252578 -4.960958,-3.378879 -8.125,-3.378906 m 15.625,11.484375 c -3.3e-5,4.309907 -1.529979,7.994799 -4.589844,11.054688 -3.0469,3.046875 -6.725282,4.570315 -11.035156,4.570315 -4.32293,0 -8.007822,-1.52344 -11.054688,-4.570315 -3.046878,-3.046868 -4.570314,-6.73176 -4.570312,-11.054688 -2e-6,-4.309876 1.523434,-7.988258 4.570312,-11.035156 3.059887,-3.059866 6.744779,-4.589813 11.054688,-4.589844 4.296854,3.1e-5 7.975235,1.529978 11.035156,4.589844 1.536429,1.536483 2.682261,3.216169 3.4375,5.039062 0.768197,1.822937 1.152311,3.821633 1.152344,5.996094" />
    <path
       inkscape:connector-curvature="0"
       style="font-size:40px;font-style:normal;font-variant:normal;font-weight:bold;font-stretch:normal;line-height:125%;letter-spacing:0px;word-spacing:0px;fill:#000000;fill-opacity:1;stroke:none;font-family:Comfortaa;-inkscape-font-specification:Comfortaa Bold"
       id="path3023"
       d="m 65.545969,70.259418 0,10.917969 5.46875,0 c 0.7552,1.6e-5 1.46483,-0.143213 2.12891,-0.429688 0.66404,-0.286441 1.23696,-0.677066 1.71875,-1.171875 0.49477,-0.507794 0.8854,-1.08722 1.17187,-1.738281 0.28644,-0.664042 0.42967,-1.367167 0.42969,-2.109375 -2e-5,-0.755186 -0.14325,-1.464821 -0.42969,-2.128906 -0.28647,-0.664038 -0.6771,-1.243465 -1.17187,-1.738281 -0.49481,-0.494766 -1.07424,-0.885391 -1.73829,-1.171875 -0.66407,-0.286432 -1.3672,-0.429661 -2.10937,-0.429688 l -5.46875,0 m -4.14063,25.039068 0,-27.10938 c 0,-0.286429 0.0521,-0.553356 0.15625,-0.800782 0.10417,-0.260386 0.2474,-0.48174 0.42969,-0.664062 0.19531,-0.195282 0.41667,-0.345021 0.66406,-0.449219 0.2474,-0.104135 0.52083,-0.156219 0.82032,-0.15625 l 7.53906,0 c 1.31509,3.1e-5 2.55207,0.253937 3.71094,0.761719 1.17186,0.507842 2.18748,1.197946 3.04687,2.070312 0.87238,0.872424 1.56248,1.894558 2.07031,3.066407 0.5078,1.158878 0.7617,2.395856 0.76172,3.710937 -2e-5,0.859396 -0.1107,1.699239 -0.33203,2.519531 -0.20835,0.80731 -0.52736,1.575539 -0.95703,2.304688 -0.41669,0.716162 -0.94403,1.386734 -1.58203,2.011719 -0.62502,0.611993 -1.35418,1.152357 -2.1875,1.621093 l 6.23047,9.980469 c 0.22133,0.364588 0.33201,0.742188 0.33203,1.132818 -2e-5,0.29948 -0.0521,0.57291 -0.15625,0.82031 -0.10419,0.24739 -0.25393,0.46875 -0.44922,0.66406 -0.18231,0.18229 -0.40367,0.32552 -0.66406,0.42969 -0.24742,0.10416 -0.51435,0.15625 -0.80078,0.15625 -0.72919,0 -1.32164,-0.33854 -1.77735,-1.01563 l -6.89453,-11.035154 -5.82031,0 0,9.980474 c -1e-5,0.57291 -0.20183,1.06119 -0.60547,1.46484 -0.40365,0.40364 -0.89193,0.60547 -1.46484,0.60547 -0.57292,0 -1.0612,-0.20183 -1.46485,-0.60547 -0.40365,-0.40365 -0.60547,-0.89193 -0.60547,-1.46484" />
    <path
       inkscape:connector-curvature="0"
       style="font-size:40px;font-style:normal;font-variant:normal;font-weight:bold;font-stretch:normal;line-height:125%;letter-spacing:0px;word-spacing:0px;fill:#000000;fill-opacity:1;stroke:none;font-family:Comfortaa;-inkscape-font-specification:Comfortaa Bold"
       id="path3025"
       d="m 104.33503,70.259418 -7.714841,0 0,25.039068 c -2e-5,0.57291 -0.20184,1.06119 -0.60547,1.46484 -0.40366,0.40364 -0.89194,0.60547 -1.46485,0.60547 -0.57292,0 -1.06121,-0.20183 -1.46484,-0.60547 -0.40366,-0.40365 -0.60548,-0.89193 -0.60547,-1.46484 l 0,-25.039068 -7.71484,0 c -0.57292,2.7e-5 -1.0612,-0.201796 -1.46484,-0.605469 -0.40365,-0.403617 -0.60548,-0.891898 -0.60547,-1.464843 -10e-6,-0.572887 0.20182,-1.061168 0.60547,-1.464844 0.40364,-0.403615 0.89192,-0.605438 1.46484,-0.605469 l 19.570311,0 c 0.57289,3.1e-5 1.06117,0.201854 1.46483,0.605469 0.40363,0.403676 0.60545,0.891957 0.60547,1.464844 -2e-5,0.572945 -0.20184,1.061226 -0.60547,1.464843 -0.40366,0.403673 -0.89194,0.605496 -1.46483,0.605469" />
    <path
       inkscape:connector-curvature="0"
       style="font-size:40px;font-style:normal;font-variant:normal;font-weight:bold;font-stretch:normal;line-height:125%;letter-spacing:0px;word-spacing:0px;fill:#000000;fill-opacity:1;stroke:none;font-family:Comfortaa;-inkscape-font-specification:Comfortaa Bold"
       id="path3027"
       d="m 122.4405,70.259418 c -1.6146,2.7e-5 -3.09246,0.279975 -4.4336,0.839844 -1.32813,0.559921 -2.5586,1.406275 -3.6914,2.539062 -1.13283,1.132835 -1.97918,2.363303 -2.53907,3.691407 -0.54687,1.328143 -0.82032,2.799496 -0.82032,4.414062 0,3.177096 1.11979,5.885426 3.35938,8.125 2.23957,2.239589 4.9479,3.359379 8.125,3.359375 3.17706,4e-6 5.88539,-1.119786 8.125,-3.359375 2.23956,-2.239574 3.35935,-4.947904 3.35937,-8.125 -2e-5,-3.164044 -1.11981,-5.865864 -3.35937,-8.105469 -2.25263,-2.252578 -4.96096,-3.378879 -8.125,-3.378906 m 15.625,11.484375 c -3e-5,4.309907 -1.52998,7.994799 -4.58984,11.054688 -3.0469,3.046875 -6.72529,4.570315 -11.03516,4.570315 -4.32293,0 -8.00782,-1.52344 -11.05469,-4.570315 -3.04688,-3.046868 -4.57031,-6.73176 -4.57031,-11.054688 0,-4.309876 1.52343,-7.988258 4.57031,-11.035156 3.05989,-3.059866 6.74478,-4.589813 11.05469,-4.589844 4.29685,3.1e-5 7.97524,1.529978 11.03516,4.589844 1.53642,1.536483 2.68226,3.216169 3.4375,5.039062 0.76819,1.822937 1.15231,3.821633 1.15234,5.996094" />
    <path
       inkscape:connector-curvature="0"
       style="font-size:40px;font-style:normal;font-variant:normal;font-weight:bold;font-stretch:normal;line-height:125%;letter-spacing:0px;word-spacing:0px;fill:#000000;fill-opacity:1;stroke:none;font-family:Comfortaa;-inkscape-font-specification:Comfortaa Bold"
       id="path3029"
       d="m 167.24518,92.407856 c -3e-5,0.546879 -0.21486,1.04167 -0.64453,1.484375 -2.90367,2.317705 -6.17841,3.476565 -9.82422,3.476565 -4.32293,0 -8.00782,-1.52344 -11.05469,-4.570315 -3.04688,-3.046868 -4.57031,-6.73176 -4.57031,-11.054688 0,-4.309876 1.52343,-7.988258 4.57031,-11.035156 3.05989,-3.059866 6.74478,-4.589813 11.05469,-4.589844 3.69789,3.1e-5 7.03773,1.217478 10.01953,3.652344 0.36456,0.338569 0.54686,0.813829 0.54688,1.425781 -2e-5,0.299505 -0.0521,0.572942 -0.15625,0.820313 -0.1042,0.24742 -0.25394,0.468774 -0.44923,0.664062 -0.1823,0.182316 -0.40366,0.325545 -0.66406,0.429688 -0.24741,0.10419 -0.51434,0.156274 -0.80077,0.15625 -0.53389,2.4e-5 -1.00914,-0.195289 -1.42579,-0.585938 -0.9896,-0.781224 -2.08335,-1.380182 -3.28125,-1.796875 -1.18492,-0.41664 -2.44793,-0.624973 -3.78906,-0.625 -3.1771,2.7e-5 -5.89194,1.126328 -8.14453,3.378906 -2.22657,2.226584 -3.33985,4.928405 -3.33985,8.105469 0,3.190117 1.11328,5.898447 3.33985,8.125 2.23957,2.239589 4.95441,3.359379 8.14453,3.359375 2.35676,4e-6 4.46612,-0.618485 6.32812,-1.855469 l 0,-6.054687 -5.39062,0 c -0.58596,1.2e-5 -1.08074,-0.1953 -1.48438,-0.585938 -0.39063,-0.403632 -0.58594,-0.898424 -0.58594,-1.484375 0,-0.286444 0.0521,-0.55337 0.15625,-0.800781 0.10417,-0.260401 0.24739,-0.481755 0.42969,-0.664062 0.19531,-0.195297 0.41665,-0.345037 0.66406,-0.449219 0.24739,-0.104151 0.52083,-0.156234 0.82033,-0.15625 l 7.48046,0 c 0.27342,1.6e-5 0.53382,0.05861 0.78125,0.175781 0.24737,0.104183 0.46222,0.253922 0.64454,0.449219 0.19527,0.182307 0.34502,0.403661 0.44921,0.664062 0.11717,0.247411 0.17575,0.507827 0.17579,0.78125 l 0,9.160157" />
    <path
       inkscape:connector-curvature="0"
       style="font-size:40px;font-style:normal;font-variant:normal;font-weight:bold;font-stretch:normal;line-height:125%;letter-spacing:0px;word-spacing:0px;fill:#000000;fill-opacity:1;stroke:none;font-family:Comfortaa;-inkscape-font-specification:Comfortaa Bold"
       id="path3031"
       d="m 174.53034,70.259418 0,10.917969 5.46875,0 c 0.7552,1.6e-5 1.46483,-0.143213 2.1289,-0.429688 0.66406,-0.286441 1.23696,-0.677066 1.71875,-1.171875 0.49478,-0.507794 0.8854,-1.08722 1.17187,-1.738281 0.28645,-0.664042 0.42969,-1.367167 0.42969,-2.109375 0,-0.755186 -0.14324,-1.464821 -0.42969,-2.128906 -0.28647,-0.664038 -0.67708,-1.243465 -1.17187,-1.738281 -0.4948,-0.494766 -1.07423,-0.885391 -1.73828,-1.171875 -0.66408,-0.286432 -1.3672,-0.429661 -2.10937,-0.429688 l -5.46875,0 m -4.14063,25.039068 0,-27.10938 c 0,-0.286429 0.0521,-0.553356 0.15625,-0.800782 0.10416,-0.260386 0.24739,-0.48174 0.42969,-0.664062 0.19531,-0.195282 0.41666,-0.345021 0.66406,-0.449219 0.24739,-0.104135 0.52083,-0.156219 0.82032,-0.15625 l 7.53906,0 c 1.31509,3.1e-5 2.55206,0.253937 3.71094,0.761719 1.17185,0.507842 2.18747,1.197946 3.04687,2.070312 0.87237,0.872424 1.56248,1.894558 2.07031,3.066407 0.50779,1.158878 0.7617,2.395856 0.76172,3.710937 -2e-5,0.859396 -0.1107,1.699239 -0.33203,2.519531 -0.20836,0.80731 -0.52737,1.575539 -0.95704,2.304688 -0.41668,0.716162 -0.94402,1.386734 -1.58203,2.011719 -0.62501,0.611993 -1.35418,1.152357 -2.1875,1.621093 l 6.23047,9.980469 c 0.22133,0.364588 0.33201,0.742188 0.33203,1.132818 -2e-5,0.29948 -0.0521,0.57291 -0.15625,0.82031 -0.10418,0.24739 -0.25392,0.46875 -0.44922,0.66406 -0.18231,0.18229 -0.40366,0.32552 -0.66406,0.42969 -0.24741,0.10416 -0.51434,0.15625 -0.80078,0.15625 -0.72918,0 -1.32163,-0.33854 -1.77734,-1.01563 l -6.89453,-11.035154 -5.82032,0 0,9.980474 c 0,0.57291 -0.20182,1.06119 -0.60547,1.46484 -0.40365,0.40364 -0.89193,0.60547 -1.46484,0.60547 -0.57292,0 -1.0612,-0.20183 -1.46484,-0.60547 -0.40365,-0.40365 -0.60547,-0.89193 -0.60547,-1.46484" />
    <path
       inkscape:connector-curvature="0"
       style="font-size:40px;font-style:normal;font-variant:normal;font-weight:bold;font-stretch:normal;line-height:125%;letter-spacing:0px;word-spacing:0px;fill:#000000;fill-opacity:1;stroke:none;font-family:Comfortaa;-inkscape-font-specification:Comfortaa Bold"
       id="path3033"
       d="m 209.8819,82.681293 -3.39844,-8.769531 -3.39843,8.769531 6.79687,0 M 194.08111,94.360986 204.5108,67.525043 c 0.41666,-0.937469 1.07421,-1.406219 1.97266,-1.40625 0.92446,3.1e-5 1.58201,0.468781 1.97265,1.40625 l 10.46875,26.933593 c 0.10415,0.26042 0.15623,0.54037 0.15625,0.83985 -2e-5,0.57291 -0.20184,1.06119 -0.60546,1.46484 -0.40368,0.40364 -0.89196,0.60547 -1.46485,0.60547 -0.57294,0 -1.05471,-0.20183 -1.44531,-0.60547 -0.20836,-0.20833 -0.36461,-0.42969 -0.46875,-0.66406 l -3.61328,-9.277348 -10,0 -3.63281,9.277348 c -0.10418,0.23437 -0.26043,0.45573 -0.46875,0.66406 -0.40365,0.40364 -0.89193,0.60547 -1.46485,0.60547 -0.57292,0 -1.0612,-0.20183 -1.46484,-0.60547 -0.39063,-0.40365 -0.58594,-0.89193 -0.58594,-1.46484 0,-0.3125 0.0716,-0.625 0.21484,-0.9375" />
    <path
       inkscape:connector-curvature="0"
       style="font-size:40px;font-style:normal;font-variant:normal;font-weight:bold;font-stretch:normal;line-height:125%;letter-spacing:0px;word-spacing:0px;fill:#000000;fill-opacity:1;stroke:none;font-family:Comfortaa;-inkscape-font-specification:Comfortaa Bold"
       id="path3035"
       d="m 226.0733,70.259418 0,12.421875 3.94531,0 c 0.84635,1.5e-5 1.64062,-0.162746 2.38282,-0.488281 0.75519,-0.325506 1.41274,-0.768213 1.97265,-1.328125 0.57291,-0.559879 1.02212,-1.21743 1.34766,-1.972656 0.33853,-0.75519 0.5078,-1.56248 0.50781,-2.421875 0,-0.872375 -0.16928,-1.686176 -0.50781,-2.441407 -0.32554,-0.755184 -0.77475,-1.412735 -1.34766,-1.972656 -0.55991,-0.55987 -1.21746,-0.996067 -1.97265,-1.308594 -0.75522,-0.325494 -1.54949,-0.488254 -2.38282,-0.488281 l -3.94531,0 m -4.14062,25.039068 0,-27.10938 c 0,-0.286429 0.0521,-0.553356 0.15625,-0.800782 0.10416,-0.260386 0.24739,-0.48174 0.42968,-0.664062 0.19532,-0.195282 0.41667,-0.345021 0.66407,-0.449219 0.24739,-0.104135 0.52083,-0.156219 0.82031,-0.15625 l 6.01562,0 c 0.9375,3.1e-5 1.84244,0.123729 2.71485,0.371094 0.88541,0.247426 1.71223,0.598988 2.48048,1.054687 0.76821,0.455759 1.47134,1.002633 2.10937,1.640625 0.63801,0.625028 1.17837,1.321642 1.6211,2.089844 0.45571,0.768255 0.80727,1.595077 1.05468,2.480469 0.2604,0.872418 0.39061,1.777365 0.39063,2.714844 -2e-5,2.838559 -1.02216,5.279963 -3.06641,7.324218 -2.01824,2.018241 -4.45313,3.027355 -7.30469,3.027344 l -3.94531,0 0,8.476568 c 0,0.57291 -0.20183,1.06119 -0.60547,1.46484 -0.40366,0.40364 -0.89193,0.60547 -1.46484,0.60547 -0.57292,0 -1.0612,-0.20183 -1.46484,-0.60547 -0.40365,-0.40365 -0.60547,-0.89193 -0.60547,-1.46484" />
    <path
       inkscape:connector-curvature="0"
       style="font-size:40px;font-style:normal;font-variant:normal;font-weight:bold;font-stretch:normal;line-height:125%;letter-spacing:0px;word-spacing:0px;fill:#000000;fill-opacity:1;stroke:none;font-family:Comfortaa;-inkscape-font-specification:Comfortaa Bold"
       id="path3037"
       d="m 265.27252,95.298486 c -2e-5,0.57291 -0.20185,1.06119 -0.60547,1.46484 -0.40367,0.40364 -0.89195,0.60547 -1.46484,0.60547 -0.57294,0 -1.06122,-0.20183 -1.46485,-0.60547 -0.40366,-0.40365 -0.60548,-0.89193 -0.60546,-1.46484 l 0,-11.48438 -13.92579,0 0,11.48438 c 0,0.57291 -0.20182,1.06119 -0.60546,1.46484 -0.40365,0.40364 -0.89193,0.60547 -1.46485,0.60547 -0.57292,0 -1.0612,-0.20183 -1.46484,-0.60547 -0.40365,-0.40365 -0.60547,-0.89193 -0.60547,-1.46484 l 0,-27.10938 c 0,-0.572887 0.20182,-1.061168 0.60547,-1.464844 0.40364,-0.403615 0.89192,-0.605438 1.46484,-0.605469 0.57292,3.1e-5 1.0612,0.201854 1.46485,0.605469 0.40364,0.403676 0.60546,0.891957 0.60546,1.464844 l 0,11.484375 13.92579,0 0,-11.484375 c -2e-5,-0.572887 0.2018,-1.061168 0.60546,-1.464844 0.40363,-0.403615 0.89191,-0.605438 1.46485,-0.605469 0.57289,3.1e-5 1.06117,0.201854 1.46484,0.605469 0.40362,0.403676 0.60545,0.891957 0.60547,1.464844 l 0,27.10938" />
    <path
       inkscape:connector-curvature="0"
       style="font-size:40px;font-style:normal;font-variant:normal;font-weight:bold;font-stretch:normal;line-height:125%;letter-spacing:0px;word-spacing:0px;fill:#000000;fill-opacity:1;stroke:none;font-family:Comfortaa;-inkscape-font-specification:Comfortaa Bold"
       id="path3039"
       d="m 271.81549,66.978168 7.34375,10.996094 7.34375,-10.996094 c 0.40363,-0.572886 0.97003,-0.859344 1.69922,-0.859375 0.57289,3.1e-5 1.05467,0.201854 1.44532,0.605469 0.40361,0.403676 0.60545,0.891957 0.60547,1.464844 -2e-5,0.468778 -0.10419,0.859403 -0.3125,1.171875 l -8.71094,13.007812 0,12.929683 c -10e-6,0.57292 -0.20183,1.0612 -0.60547,1.46485 -0.40366,0.40364 -0.89194,0.60547 -1.46484,0.60547 -0.55991,0 -1.04819,-0.20183 -1.46484,-0.60547 -0.40366,-0.40365 -0.60548,-0.89193 -0.60547,-1.46485 l 0,-12.929683 -8.69141,-13.007812 c -0.22135,-0.338514 -0.33203,-0.729138 -0.33203,-1.171875 0,-0.572887 0.20182,-1.061168 0.60547,-1.464844 0.40364,-0.403615 0.89192,-0.605438 1.46484,-0.605469 0.72916,3.1e-5 1.28906,0.286489 1.67969,0.859375" />
    <path
       d="m 41.408087,82.302013 c 0.67981,0.39249 -0.193673,1.110013 -0.652344,1.129892 -1.242968,0.05386 -1.834206,-1.398287 -1.607438,-2.434579 0.405636,-1.853686 2.540718,-2.630205 4.216814,-2.084985 2.45974,0.80013 3.444345,3.696678 2.562531,5.999048 -1.175321,3.068698 -4.857184,4.265893 -7.781283,3.040079 -3.67968,-1.542563 -5.091202,-6.019794 -3.517625,-9.563518 1.905814,-4.291926 7.183575,-5.91868 11.345752,-3.995172 4.904984,2.266787 6.747517,8.348083 4.472719,13.127987 -2.626344,5.518587 -9.51308,7.577261 -14.910221,4.950266 -6.132577,-2.984957 -8.407637,-10.678419 -5.427813,-16.692456 3.342912,-6.746845 11.844006,-9.238476 18.474691,-5.90536 7.361317,3.700389 10.069658,13.009784 6.382906,20.256925"
       id="path2999-3"
       style="fill:none;stroke:#000000;stroke-width:1.73690319px;stroke-linecap:butt;stroke-linejoin:miter;stroke-opacity:1"
       inkscape:connector-curvature="0" />
    <rect
       width="2.5"
       height="53.92857"
       x="27.233212"
       y="81.751289"
       id="rect3025-3" />
    <rect
       transform="matrix(0.96951864,-0.24501755,0.52089857,0.85361858,0,0)"
       id="rect3027-4"
       y="26.884483"
       x="-3.756891"
       height="42.142319"
       width="43.007168" />
    <rect
       transform="matrix(0.96849152,-0.24904652,0.26891812,0.96316304,0,0)"
       id="rect3029-0"
       y="68.010925"
       x="5.5785089"
       height="3.0601029"
       width="65.324333" />
    <rect
       style="fill:#ffffff"
       transform="matrix(0.96951864,-0.24501755,0.52089857,0.85361858,0,0)"
       id="rect3027-4-5"
       y="28.034313"
       x="-1.5586013"
       height="8.343359"
       width="8.5145826" />
    <rect
       style="fill:#ffffff"
       transform="matrix(0.96951864,-0.24501755,0.52089857,0.85361858,0,0)"
       id="rect3027-4-5-8"
       y="36.10149"
       x="-1.5188361"
       height="8.343359"
       width="8.5145826" />
    <rect
       style="fill:#ffffff"
       transform="matrix(0.96951864,-0.24501755,0.52089857,0.85361858,0,0)"
       id="rect3027-4-5-0"
       y="44.188549"
       x="-1.5043842"
       height="8.343359"
       width="8.5145826" />
    <rect
       style="fill:#ffffff"
       transform="matrix(0.96951864,-0.24501755,0.52089857,0.85361858,0,0)"
       id="rect3027-4-5-82"
       y="52.32489"
       x="-1.5034829"
       height="8.343359"
       width="8.5145826" />
    <rect
       style="fill:#ffffff"
       transform="matrix(0.96951864,-0.24501755,0.52089857,0.85361858,0,0)"
       id="rect3027-4-5-4"
       y="59.321754"
       x="-1.5107864"
       height="8.343359"
       width="8.5145826" />
  </g>
</svg>
